<svg width="14" height="16" viewBox="0 0 14 16" fill="none" xmlns="http://www.w3.org/2000/svg">
<path d="M14 6.5625H13.9688C12.5312 6.5625 11.2188 6.125 10.1562 5.34375V10.9375C10.1562 13.75 7.875 16 5.0625 16C2.25 16 0 13.75 0 10.9375C0 8.125 2.25 5.84375 5.0625 5.84375C5.3125 5.84375 5.53125 5.875 5.78125 5.90625V8.71875C5.53125 8.625 5.3125 8.59375 5.0625 8.59375C3.78125 8.59375 2.71875 9.65625 2.71875 10.9375C2.71875 12.2188 3.78125 13.2812 5.0625 13.2812C6.34375 13.2812 7.40625 12.2188 7.40625 10.9375V0H10.1562C10.1562 0.03125 10.1562 0.03125 10.1562 0.0625C10.1562 0.28125 10.1562 0.5 10.2188 0.71875C10.4062 1.75 11.0312 2.65625 11.9062 3.21875C12.5 3.625 13.2188 3.84375 13.9688 3.84375C13.9688 3.84375 13.9688 3.84375 14 3.84375V6.5625Z" fill="#FFFFFF"/>
<path d="M14 6.5625H13.9688C12.5312 6.5625 11.2188 6.125 10.1562 5.34375V10.9375C10.1562 13.75 7.875 16 5.0625 16C2.25 16 0 13.75 0 10.9375C0 8.125 2.25 5.84375 5.0625 5.84375C5.3125 5.84375 5.53125 5.875 5.78125 5.90625V8.71875C5.53125 8.625 5.3125 8.59375 5.0625 8.59375C3.78125 8.59375 2.71875 9.65625 2.71875 10.9375C2.71875 12.2188 3.78125 13.2812 5.0625 13.2812C6.34375 13.2812 7.40625 12.2188 7.40625 10.9375V0H10.1562C10.1562 0.03125 10.1562 0.03125 10.1562 0.0625C10.1562 0.28125 10.1562 0.5 10.2188 0.71875C10.4062 1.75 11.0312 2.65625 11.9062 3.21875C12.5 3.625 13.2188 3.84375 13.9688 3.84375C13.9688 3.84375 13.9688 3.84375 14 3.84375V6.5625Z" fill="#FFFFFF" fill-opacity="0.2"/>
</svg>
